<?xml version="1.0" encoding="UTF-8"?>
<svg xmlns="http://www.w3.org/2000/svg" xmlns:xlink="http://www.w3.org/1999/xlink" width="31px" height="31px" viewBox="0 0 31 31" version="1.1">
<g id="surface1">
<rect x="0" y="0" width="31" height="31" style="fill:rgb(100%,100%,100%);fill-opacity:1;stroke:none;"/>
<path style=" stroke:none;fill-rule:evenodd;fill:rgb(0%,46.666667%,65.098039%);fill-opacity:1;" d="M 1.363281 28.578125 L 1.277344 28.578125 C 1.277344 28.535156 1.253906 28.46875 1.253906 28.445312 C 1.253906 28.421875 1.253906 28.378906 1.1875 28.378906 L 1.054688 28.378906 L 1.054688 28.578125 L 0.988281 28.578125 L 0.988281 28.113281 L 1.1875 28.113281 C 1.277344 28.113281 1.34375 28.136719 1.34375 28.222656 C 1.34375 28.289062 1.320312 28.3125 1.296875 28.335938 C 1.320312 28.355469 1.34375 28.378906 1.34375 28.421875 L 1.34375 28.511719 C 1.34375 28.535156 1.34375 28.535156 1.363281 28.535156 Z M 1.277344 28.246094 C 1.277344 28.179688 1.230469 28.179688 1.210938 28.179688 L 1.054688 28.179688 L 1.054688 28.3125 L 1.1875 28.3125 C 1.230469 28.3125 1.277344 28.289062 1.277344 28.246094 Z M 1.652344 28.335938 C 1.652344 28.070312 1.429688 27.847656 1.144531 27.847656 C 0.875 27.847656 0.65625 28.070312 0.65625 28.335938 C 0.65625 28.621094 0.875 28.84375 1.144531 28.84375 C 1.429688 28.84375 1.652344 28.621094 1.652344 28.335938 Z M 1.585938 28.335938 C 1.585938 28.578125 1.386719 28.757812 1.144531 28.757812 C 0.898438 28.757812 0.722656 28.578125 0.722656 28.335938 C 0.722656 28.113281 0.898438 27.914062 1.144531 27.914062 C 1.386719 27.914062 1.585938 28.113281 1.585938 28.335938 Z M 28.917969 19.371094 C 28.917969 20.039062 28.496094 20.347656 27.742188 20.347656 L 26.300781 20.347656 L 26.300781 19.683594 L 27.742188 19.683594 C 27.875 19.683594 27.988281 19.660156 28.03125 19.617188 C 28.078125 19.570312 28.121094 19.503906 28.121094 19.414062 C 28.121094 19.328125 28.078125 19.238281 28.03125 19.195312 C 27.988281 19.148438 27.898438 19.128906 27.765625 19.128906 C 27.078125 19.105469 26.210938 19.148438 26.210938 18.171875 C 26.210938 17.730469 26.5 17.242188 27.277344 17.242188 L 28.765625 17.242188 L 28.765625 17.90625 L 27.386719 17.90625 C 27.253906 17.90625 27.167969 17.90625 27.101562 17.953125 C 27.035156 18.019531 26.988281 18.085938 26.988281 18.195312 C 26.988281 18.304688 27.054688 18.371094 27.144531 18.417969 C 27.234375 18.441406 27.320312 18.460938 27.433594 18.460938 L 27.832031 18.460938 C 28.253906 18.460938 28.519531 18.550781 28.699219 18.707031 C 28.832031 18.859375 28.917969 19.0625 28.917969 19.371094 Z M 25.792969 18.707031 C 25.613281 18.550781 25.347656 18.460938 24.925781 18.460938 L 24.527344 18.460938 C 24.414062 18.460938 24.328125 18.4375 24.238281 18.417969 C 24.148438 18.371094 24.082031 18.304688 24.082031 18.195312 C 24.082031 18.085938 24.105469 18.019531 24.195312 17.953125 C 24.261719 17.90625 24.347656 17.90625 24.480469 17.90625 L 25.859375 17.90625 L 25.859375 17.242188 L 24.371094 17.242188 C 23.574219 17.242188 23.304688 17.730469 23.304688 18.171875 C 23.304688 19.148438 24.171875 19.105469 24.859375 19.128906 C 24.992188 19.128906 25.082031 19.148438 25.125 19.195312 C 25.167969 19.238281 25.214844 19.328125 25.214844 19.414062 C 25.214844 19.503906 25.167969 19.570312 25.125 19.617188 C 25.058594 19.660156 24.96875 19.683594 24.835938 19.683594 L 23.394531 19.683594 L 23.394531 20.347656 L 24.835938 20.347656 C 25.589844 20.347656 26.011719 20.035156 26.011719 19.371094 C 26.011719 19.0625 25.925781 18.859375 25.792969 18.707031 Z M 22.953125 19.703125 L 21.199219 19.703125 L 21.199219 19.082031 L 22.90625 19.082031 L 22.90625 18.460938 L 21.199219 18.460938 L 21.199219 17.886719 L 22.953125 17.886719 L 22.953125 17.242188 L 20.464844 17.242188 L 20.464844 20.347656 L 22.953125 20.347656 Z M 19.667969 17.398438 C 19.421875 17.265625 19.136719 17.242188 18.757812 17.242188 L 17.050781 17.242188 L 17.050781 20.347656 L 17.804688 20.347656 L 17.804688 19.214844 L 18.601562 19.214844 C 18.867188 19.214844 19.023438 19.238281 19.136719 19.347656 C 19.269531 19.503906 19.269531 19.769531 19.269531 19.96875 L 19.269531 20.347656 L 20 20.347656 L 20 19.75 C 20 19.460938 19.976562 19.328125 19.890625 19.171875 C 19.824219 19.082031 19.691406 18.972656 19.511719 18.90625 C 19.710938 18.839844 20.046875 18.574219 20.046875 18.085938 C 20.046875 17.730469 19.910156 17.53125 19.667969 17.398438 Z M 15.453125 17.242188 L 13.078125 17.242188 L 12.125 18.261719 L 11.214844 17.242188 L 8.21875 17.242188 L 8.21875 20.347656 L 11.171875 20.347656 L 12.125 19.328125 L 13.035156 20.347656 L 14.476562 20.347656 L 14.476562 19.304688 L 15.410156 19.304688 C 16.050781 19.304688 16.695312 19.128906 16.695312 18.261719 C 16.695312 17.417969 16.03125 17.242188 15.453125 17.242188 Z M 19.070312 18.527344 C 18.957031 18.574219 18.847656 18.574219 18.714844 18.574219 L 17.804688 18.59375 L 17.804688 17.886719 L 18.714844 17.886719 C 18.847656 17.886719 18.980469 17.886719 19.070312 17.953125 C 19.15625 17.996094 19.222656 18.085938 19.222656 18.21875 C 19.222656 18.351562 19.15625 18.460938 19.070312 18.527344 Z M 15.453125 18.683594 L 14.476562 18.683594 L 14.476562 17.886719 L 15.453125 17.886719 C 15.71875 17.886719 15.894531 17.996094 15.894531 18.261719 C 15.894531 18.527344 15.71875 18.683594 15.453125 18.683594 Z M 12.589844 18.792969 L 13.742188 17.574219 L 13.742188 20.082031 Z M 10.792969 19.703125 L 8.953125 19.703125 L 8.953125 19.082031 L 10.59375 19.082031 L 10.59375 18.460938 L 8.953125 18.460938 L 8.953125 17.886719 L 10.816406 17.886719 L 11.636719 18.792969 Z M 26.855469 15 L 25.792969 15 L 24.394531 12.671875 L 24.394531 15 L 22.886719 15 L 22.597656 14.3125 L 21.042969 14.3125 L 20.753906 15 L 19.890625 15 C 19.535156 15 19.070312 14.910156 18.800781 14.644531 C 18.558594 14.378906 18.425781 14.023438 18.425781 13.46875 C 18.425781 13.003906 18.492188 12.582031 18.824219 12.25 C 19.046875 12.003906 19.445312 11.894531 19.957031 11.894531 L 20.664062 11.894531 L 20.664062 12.558594 L 19.957031 12.558594 C 19.691406 12.558594 19.535156 12.605469 19.378906 12.738281 C 19.246094 12.871094 19.179688 13.113281 19.179688 13.449219 C 19.179688 13.78125 19.246094 14.023438 19.378906 14.179688 C 19.488281 14.289062 19.691406 14.335938 19.890625 14.335938 L 20.222656 14.335938 L 21.289062 11.894531 L 22.398438 11.894531 L 23.640625 14.824219 L 23.640625 11.894531 L 24.792969 11.894531 L 26.101562 14.046875 L 26.101562 11.894531 L 26.855469 11.894531 Z M 18.046875 11.894531 L 17.292969 11.894531 L 17.292969 15 L 18.046875 15 Z M 16.472656 12.027344 C 16.230469 11.894531 15.960938 11.894531 15.585938 11.894531 L 13.878906 11.894531 L 13.878906 15 L 14.609375 15 L 14.609375 13.871094 L 15.40625 13.871094 C 15.675781 13.871094 15.851562 13.890625 15.960938 14.003906 C 16.097656 14.15625 16.074219 14.425781 16.074219 14.601562 L 16.074219 15 L 16.828125 15 L 16.828125 14.378906 C 16.828125 14.113281 16.804688 13.980469 16.695312 13.824219 C 16.628906 13.734375 16.496094 13.625 16.339844 13.558594 C 16.539062 13.46875 16.871094 13.226562 16.871094 12.738281 C 16.871094 12.382812 16.71875 12.183594 16.472656 12.027344 Z M 13.34375 14.359375 L 11.613281 14.359375 L 11.613281 13.734375 L 13.324219 13.734375 L 13.324219 13.09375 L 11.613281 13.09375 L 11.613281 12.539062 L 13.34375 12.539062 L 13.34375 11.894531 L 10.859375 11.894531 L 10.859375 15 L 13.34375 15 Z M 10.304688 11.894531 L 9.085938 11.894531 L 8.175781 14.003906 L 7.199219 11.894531 L 6 11.894531 L 6 14.824219 L 4.738281 11.894531 L 3.628906 11.894531 L 2.296875 15 L 3.09375 15 L 3.382812 14.3125 L 4.9375 14.3125 L 5.226562 15 L 6.734375 15 L 6.734375 12.558594 L 7.820312 15 L 8.464844 15 L 9.550781 12.558594 L 9.550781 15 L 10.304688 15 Z M 22.332031 13.648438 L 21.820312 12.425781 L 21.308594 13.648438 Z M 15.894531 13.160156 C 15.785156 13.226562 15.675781 13.226562 15.519531 13.226562 L 14.609375 13.226562 L 14.609375 12.539062 L 15.519531 12.539062 C 15.652344 12.539062 15.808594 12.539062 15.894531 12.582031 C 15.984375 12.648438 16.027344 12.738281 16.027344 12.871094 C 16.027344 13.003906 15.984375 13.113281 15.894531 13.160156 Z M 3.648438 13.648438 L 4.160156 12.425781 L 4.671875 13.648438 Z M 28.742188 2.15625 L 2.273438 2.15625 L 2.273438 13.335938 L 3.183594 11.273438 L 5.113281 11.273438 L 5.378906 11.785156 L 5.378906 11.273438 L 7.644531 11.273438 L 8.152344 12.382812 L 8.640625 11.273438 L 15.851562 11.273438 C 16.183594 11.273438 16.472656 11.339844 16.695312 11.519531 L 16.695312 11.273438 L 18.667969 11.273438 L 18.667969 11.519531 C 19.003906 11.339844 19.421875 11.273438 19.910156 11.273438 L 22.773438 11.273438 L 23.039062 11.785156 L 23.039062 11.273438 L 25.148438 11.273438 L 25.457031 11.785156 L 25.457031 11.273438 L 27.519531 11.273438 L 27.519531 15.621094 L 25.4375 15.621094 L 25.035156 14.957031 L 25.035156 15.621094 L 22.441406 15.621094 L 22.152344 14.914062 L 21.507812 14.914062 L 21.222656 15.621094 L 19.867188 15.621094 C 19.335938 15.621094 18.933594 15.488281 18.667969 15.355469 L 18.667969 15.621094 L 15.453125 15.621094 L 15.453125 14.625 C 15.453125 14.492188 15.429688 14.46875 15.339844 14.46875 L 15.230469 14.46875 L 15.230469 15.621094 L 9.019531 15.621094 L 9.019531 15.066406 L 8.796875 15.621094 L 7.488281 15.621094 L 7.265625 15.089844 L 7.265625 15.621094 L 4.757812 15.621094 L 4.492188 14.910156 L 3.847656 14.910156 L 3.5625 15.621094 L 2.273438 15.621094 L 2.273438 28.734375 L 28.742188 28.734375 L 28.742188 20.769531 C 28.453125 20.902344 28.054688 20.96875 27.65625 20.96875 L 25.722656 20.96875 L 25.722656 20.703125 C 25.503906 20.878906 25.101562 20.96875 24.726562 20.96875 L 18.648438 20.96875 L 18.648438 19.96875 C 18.648438 19.835938 18.625 19.835938 18.515625 19.835938 L 18.402344 19.835938 L 18.402344 20.96875 L 16.40625 20.96875 L 16.40625 19.792969 C 16.074219 19.949219 15.695312 19.949219 15.363281 19.949219 L 15.140625 19.949219 L 15.140625 20.96875 L 12.703125 20.96875 L 12.125 20.304688 L 11.480469 20.96875 L 7.554688 20.96875 L 7.554688 16.621094 L 11.546875 16.621094 L 12.125 17.285156 L 12.746094 16.621094 L 15.429688 16.621094 C 15.742188 16.621094 16.25 16.664062 16.472656 16.886719 L 16.472656 16.621094 L 18.867188 16.621094 C 19.113281 16.621094 19.578125 16.664062 19.890625 16.886719 L 19.890625 16.621094 L 23.507812 16.621094 L 23.507812 16.886719 C 23.707031 16.710938 24.082031 16.621094 24.414062 16.621094 L 26.433594 16.621094 L 26.433594 16.886719 C 26.65625 16.730469 26.96875 16.621094 27.367188 16.621094 L 28.742188 16.621094 Z M 28.742188 2.15625 "/>
</g>
</svg>
