<?xml version="1.0" encoding="UTF-8"?>
<svg xmlns="http://www.w3.org/2000/svg" xmlns:xlink="http://www.w3.org/1999/xlink" width="31px" height="20px" viewBox="0 0 31 20" version="1.1">
<g id="surface1">
<path style=" stroke:none;fill-rule:nonzero;fill:rgb(0%,47.058824%,34.509804%);fill-opacity:1;" d="M 20.21875 0 C 18.394531 0 16.609375 0.550781 15.097656 1.589844 C 14.992188 1.660156 14.273438 2.1875 14.242188 2.210938 C 13.042969 3.128906 12.242188 3.285156 11.140625 3.003906 C 11.074219 2.988281 10.757812 2.878906 10.660156 2.839844 C 7.835938 1.757812 4.648438 2.679688 2.808594 5.113281 C 0.964844 7.546875 0.902344 10.917969 2.648438 13.421875 C 4.398438 15.925781 7.546875 16.972656 10.410156 16.003906 C 12.050781 15.503906 12.941406 15.640625 13.972656 16.382812 C 14.175781 16.527344 14.671875 16.851562 14.777344 16.929688 C 17.996094 19.335938 22.371094 19.351562 25.609375 16.972656 C 28.847656 14.59375 30.210938 10.355469 28.980469 6.488281 C 27.75 2.617188 24.210938 0 20.21875 0 Z M 20.21875 0 "/>
<path style=" stroke:none;fill-rule:nonzero;fill:rgb(100%,100%,100%);fill-opacity:1;" d="M 16.898438 10.820312 C 16.359375 11.363281 15.523438 11.453125 14.882812 11.039062 L 14.273438 12.027344 C 15.363281 12.726562 16.785156 12.574219 17.703125 11.65625 Z M 15.796875 6.800781 C 14.769531 6.785156 13.816406 7.347656 13.320312 8.261719 C 12.820312 9.179688 12.863281 10.300781 13.421875 11.175781 L 18.460938 8.984375 C 18.167969 7.722656 17.070312 6.820312 15.796875 6.800781 Z M 14.128906 9.808594 C 14.050781 9.078125 14.449219 8.382812 15.109375 8.09375 C 15.773438 7.808594 16.542969 7.992188 17.003906 8.554688 Z M 20.042969 5.523438 L 20.042969 10.992188 L 20.972656 11.386719 L 20.535156 12.460938 L 19.609375 12.070312 C 19.425781 11.988281 19.265625 11.855469 19.15625 11.679688 C 19.035156 11.480469 18.972656 11.246094 18.980469 11.007812 L 18.980469 5.523438 Z M 11.929688 5.523438 L 11.929688 10.992188 L 12.855469 11.386719 L 12.414062 12.460938 L 11.492188 12.070312 C 11.3125 11.988281 11.160156 11.855469 11.050781 11.6875 C 10.929688 11.484375 10.867188 11.253906 10.871094 11.015625 L 10.871094 5.523438 Z M 11.929688 5.523438 "/>
<path style=" stroke:none;fill-rule:nonzero;fill:rgb(78.039216%,83.529412%,25.098039%);fill-opacity:1;" d="M 24.625 8.128906 C 25.4375 8.527344 25.78125 9.523438 25.386719 10.351562 L 26.417969 10.855469 C 26.992188 9.636719 26.636719 8.171875 25.570312 7.363281 C 24.503906 6.550781 23.023438 6.625 22.039062 7.539062 L 22.808594 8.398438 C 23.304688 7.9375 24.023438 7.832031 24.625 8.128906 Z M 24.625 8.128906 "/>
<path style=" stroke:none;fill-rule:nonzero;fill:rgb(100%,100%,100%);fill-opacity:1;" d="M 23.207031 11.132812 C 22.390625 10.734375 22.050781 9.738281 22.441406 8.910156 L 21.410156 8.402344 C 20.839844 9.625 21.195312 11.082031 22.257812 11.890625 C 23.324219 12.699219 24.796875 12.628906 25.785156 11.722656 L 25.011719 10.863281 C 24.519531 11.320312 23.808594 11.425781 23.207031 11.132812 Z M 9.820312 11.214844 L 9.820312 9.628906 C 9.820312 8.074219 8.578125 6.808594 7.050781 6.808594 C 5.519531 6.808594 4.277344 8.074219 4.277344 9.628906 C 4.277344 11.1875 5.519531 12.453125 7.050781 12.453125 C 7.480469 12.453125 7.902344 12.351562 8.285156 12.15625 L 7.839844 11.09375 C 7.332031 11.378906 6.714844 11.371094 6.214844 11.070312 C 5.714844 10.769531 5.410156 10.222656 5.410156 9.628906 C 5.40625 9.359375 5.472656 9.089844 5.597656 8.847656 C 5.820312 8.421875 6.214844 8.113281 6.675781 8.003906 C 6.796875 7.976562 6.921875 7.960938 7.046875 7.960938 C 7.953125 7.960938 8.6875 8.707031 8.6875 9.628906 L 8.6875 11.199219 C 8.683594 11.4375 8.746094 11.671875 8.867188 11.871094 C 8.976562 12.042969 9.136719 12.179688 9.320312 12.261719 L 9.839844 12.46875 L 10.28125 11.394531 Z M 9.820312 11.214844 "/>
</g>
</svg>
