<?xml version="1.0" encoding="UTF-8"?>
<svg xmlns="http://www.w3.org/2000/svg" xmlns:xlink="http://www.w3.org/1999/xlink" width="31px" height="15px" viewBox="0 0 31 15" version="1.1">
<g id="surface1">
<path style=" stroke:none;fill-rule:nonzero;fill:rgb(0%,0%,0%);fill-opacity:1;" d="M 0.00390625 0 L 30.996094 0 L 30.996094 15 L 0.00390625 15 Z M 0.00390625 0 "/>
<path style=" stroke:none;fill-rule:nonzero;fill:rgb(100%,79.607843%,1.960784%);fill-opacity:1;" d="M 6.390625 4.59375 C 6.6875 4.492188 7.007812 4.4375 7.335938 4.4375 C 8.78125 4.4375 9.988281 5.488281 10.261719 6.886719 L 12.3125 6.460938 C 11.84375 4.085938 9.792969 2.296875 7.335938 2.296875 C 6.773438 2.296875 6.234375 2.390625 5.726562 2.566406 Z M 6.390625 4.59375 "/>
<path style=" stroke:none;fill-rule:nonzero;fill:rgb(0%,64.313725%,87.843137%);fill-opacity:1;" d="M 3.972656 11.390625 L 5.359375 9.789062 C 4.742188 9.226562 4.351562 8.410156 4.351562 7.496094 C 4.351562 6.585938 4.742188 5.765625 5.359375 5.207031 L 3.972656 3.601562 C 2.921875 4.554688 2.261719 5.949219 2.261719 7.496094 C 2.261719 9.046875 2.921875 10.4375 3.972656 11.390625 "/>
<path style=" stroke:none;fill-rule:nonzero;fill:rgb(93.72549%,25.490196%,13.72549%);fill-opacity:1;" d="M 10.261719 8.109375 C 9.984375 9.507812 8.78125 10.554688 7.335938 10.554688 C 7.007812 10.554688 6.6875 10.5 6.390625 10.398438 L 5.726562 12.429688 C 6.234375 12.601562 6.773438 12.695312 7.335938 12.695312 C 9.792969 12.695312 11.839844 10.910156 12.3125 8.539062 Z M 10.261719 8.109375 "/>
<path style=" stroke:none;fill-rule:nonzero;fill:rgb(100%,100%,100%);fill-opacity:1;" d="M 14.101562 9.855469 C 14.035156 9.742188 13.945312 9.566406 13.890625 9.433594 C 13.5625 8.664062 13.550781 7.863281 13.824219 7.097656 C 14.125 6.257812 14.699219 5.617188 15.441406 5.289062 C 16.375 4.875 17.410156 4.957031 18.304688 5.5 C 18.875 5.835938 19.277344 6.351562 19.582031 7.082031 C 19.621094 7.175781 19.65625 7.273438 19.691406 7.359375 Z M 15.96875 6.527344 C 15.304688 6.820312 14.960938 7.457031 15.035156 8.203125 L 17.84375 6.964844 C 17.359375 6.382812 16.730469 6.191406 15.96875 6.527344 Z M 18.195312 9.222656 C 18.191406 9.222656 18.191406 9.226562 18.191406 9.226562 L 18.132812 9.183594 C 17.964844 9.460938 17.707031 9.691406 17.375 9.835938 C 16.746094 10.117188 16.164062 10.042969 15.746094 9.667969 L 15.707031 9.726562 L 14.992188 10.820312 C 15.171875 10.945312 15.359375 11.050781 15.558594 11.136719 C 16.347656 11.472656 17.152344 11.457031 17.945312 11.101562 C 18.519531 10.847656 18.972656 10.460938 19.277344 9.964844 Z M 21.644531 3.679688 L 21.644531 9.753906 L 22.566406 10.136719 L 22.042969 11.390625 L 21.023438 10.953125 C 20.796875 10.851562 20.640625 10.699219 20.523438 10.523438 C 20.410156 10.34375 20.328125 10.097656 20.328125 9.769531 L 20.328125 3.679688 Z M 24.03125 8.207031 C 24.03125 7.691406 24.257812 7.226562 24.609375 6.910156 L 23.664062 5.832031 C 23.019531 6.410156 22.617188 7.261719 22.617188 8.207031 C 22.617188 9.152344 23.019531 10 23.660156 10.582031 L 24.605469 9.503906 C 24.253906 9.1875 24.03125 8.722656 24.03125 8.207031 Z M 25.714844 9.929688 C 25.527344 9.929688 25.347656 9.898438 25.179688 9.839844 L 24.726562 11.21875 C 25.039062 11.324219 25.367188 11.382812 25.710938 11.382812 C 27.210938 11.382812 28.460938 10.292969 28.75 8.847656 L 27.359375 8.558594 C 27.203125 9.34375 26.527344 9.933594 25.714844 9.929688 Z M 25.71875 5.035156 C 25.375 5.035156 25.042969 5.09375 24.734375 5.195312 L 25.183594 6.574219 C 25.351562 6.515625 25.53125 6.484375 25.714844 6.484375 C 26.53125 6.488281 27.207031 7.078125 27.363281 7.867188 L 28.75 7.578125 C 28.464844 6.128906 27.214844 5.035156 25.71875 5.035156 Z M 25.71875 5.035156 "/>
</g>
</svg>
