<?xml version="1.0" encoding="UTF-8"?>
<svg xmlns="http://www.w3.org/2000/svg" xmlns:xlink="http://www.w3.org/1999/xlink" width="31px" height="31px" viewBox="0 0 31 31" version="1.1">
<g id="surface1">
<rect x="0" y="0" width="31" height="31" style="fill:rgb(54.117647%,1.960784%,74.509804%);fill-opacity:1;stroke:none;"/>
<path style=" stroke:none;fill-rule:nonzero;fill:rgb(100%,100%,100%);fill-opacity:1;" d="M 22.882812 17.953125 C 22.882812 18.445312 22.296875 19.046875 21.820312 19.046875 L 21.386719 19.046875 C 21.386719 16.042969 21.386719 12.675781 21.386719 12.074219 C 21.386719 12.039062 21.402344 12.003906 21.425781 11.980469 C 21.449219 11.953125 21.484375 11.941406 21.519531 11.941406 L 22.75 11.941406 C 22.824219 11.941406 22.882812 12 22.882812 12.078125 Z M 20.882812 20.101562 C 20.882812 20.414062 20.730469 20.933594 19.710938 20.933594 C 17.738281 20.933594 16.523438 19.386719 16.523438 18.277344 C 16.523438 18.277344 16.523438 14.691406 16.523438 12.078125 C 16.523438 12.042969 16.535156 12.007812 16.5625 11.980469 C 16.585938 11.957031 16.621094 11.941406 16.65625 11.941406 L 17.886719 11.941406 C 17.960938 11.941406 18.019531 12.003906 18.019531 12.078125 L 18.019531 17.839844 C 18.019531 18.792969 18.773438 19.566406 19.703125 19.566406 L 20.882812 19.566406 Z M 22.84375 11.421875 L 21.425781 11.421875 C 21.125 11.421875 20.882812 11.675781 20.882812 11.984375 L 20.882812 19.046875 L 19.703125 19.046875 C 19.050781 19.046875 18.523438 18.507812 18.523438 17.839844 L 18.523438 11.984375 C 18.523438 11.671875 18.28125 11.421875 17.980469 11.421875 L 16.5625 11.421875 C 16.261719 11.421875 16.015625 11.671875 16.015625 11.984375 C 16.015625 14.539062 16.019531 18.277344 16.019531 18.277344 C 16.019531 20.242188 18.167969 21.453125 19.710938 21.453125 C 20.746094 21.453125 21.386719 20.933594 21.386719 20.097656 L 21.386719 19.566406 L 21.820312 19.566406 C 22.582031 19.566406 23.386719 18.738281 23.386719 17.953125 L 23.386719 11.984375 C 23.390625 11.671875 23.144531 11.421875 22.84375 11.421875 Z M 14.480469 18.921875 C 14.480469 18.957031 14.464844 18.992188 14.441406 19.019531 C 14.414062 19.042969 14.382812 19.058594 14.34375 19.058594 L 13.113281 19.058594 C 13.039062 19.058594 12.980469 18.996094 12.980469 18.921875 L 12.980469 13.160156 C 12.980469 12.207031 12.226562 11.433594 11.296875 11.433594 L 10.117188 11.433594 L 10.117188 10.898438 C 10.117188 10.585938 10.269531 10.066406 11.289062 10.066406 C 13.265625 10.066406 14.476562 11.613281 14.476562 12.722656 C 14.476562 12.722656 14.480469 16.328125 14.480469 18.921875 Z M 8.25 19.058594 C 8.175781 19.058594 8.117188 18.996094 8.117188 18.921875 L 8.117188 13.046875 C 8.117188 12.554688 8.703125 11.953125 9.179688 11.953125 L 9.613281 11.953125 C 9.613281 16.253906 9.613281 18.457031 9.613281 18.921875 C 9.613281 18.996094 9.554688 19.058594 9.480469 19.058594 Z M 14.980469 12.722656 C 14.980469 10.757812 12.832031 9.546875 11.289062 9.546875 C 10.253906 9.546875 9.613281 10.066406 9.613281 10.902344 L 9.613281 11.433594 L 9.179688 11.433594 C 8.417969 11.433594 7.613281 12.261719 7.613281 13.046875 L 7.613281 19.015625 C 7.613281 19.328125 7.855469 19.578125 8.15625 19.578125 L 9.574219 19.578125 C 9.582031 19.578125 9.589844 19.574219 9.597656 19.574219 C 9.886719 19.5625 10.117188 19.316406 10.117188 19.015625 L 10.117188 11.953125 L 11.296875 11.953125 C 11.949219 11.953125 12.476562 12.492188 12.476562 13.160156 L 12.476562 19.015625 C 12.476562 19.328125 12.71875 19.578125 13.019531 19.578125 L 14.4375 19.578125 C 14.738281 19.578125 14.984375 19.328125 14.984375 19.015625 C 14.984375 16.414062 14.980469 12.722656 14.980469 12.722656 Z M 14.980469 12.722656 "/>
</g>
</svg>
